<?xml version="1.0" encoding="UTF-8" standalone="no"?>
<!-- Created with Inkscape (http://www.inkscape.org/) -->

<svg
   width="110.67773mm"
   height="111.45898mm"
   viewBox="0 0 110.67773 111.45898"
   version="1.1"
   id="svg1"
   xml:space="preserve"
   inkscape:export-filename="Boton refrescar.png"
   inkscape:export-xdpi="96"
   inkscape:export-ydpi="96"
   inkscape:version="1.4.3 (0d15f75, 2025-12-25)"
   sodipodi:docname="Boton refrescar.svg"
   xmlns:inkscape="http://www.inkscape.org/namespaces/inkscape"
   xmlns:sodipodi="http://sodipodi.sourceforge.net/DTD/sodipodi-0.dtd"
   xmlns:xlink="http://www.w3.org/1999/xlink"
   xmlns="http://www.w3.org/2000/svg"
   xmlns:svg="http://www.w3.org/2000/svg"><sodipodi:namedview
     id="namedview1"
     pagecolor="#505050"
     bordercolor="#eeeeee"
     borderopacity="1"
     inkscape:showpageshadow="0"
     inkscape:pageopacity="0"
     inkscape:pagecheckerboard="0"
     inkscape:deskcolor="#505050"
     inkscape:document-units="mm"
     inkscape:zoom="1.0167041"
     inkscape:cx="304.41503"
     inkscape:cy="347.69212"
     inkscape:window-width="1920"
     inkscape:window-height="1009"
     inkscape:window-x="1912"
     inkscape:window-y="-2"
     inkscape:window-maximized="1"
     inkscape:current-layer="layer1" /><defs
     id="defs1"><linearGradient
       id="linearGradient46"
       inkscape:collect="always"><stop
         style="stop-color:#ff4001;stop-opacity:1;"
         offset="0"
         id="stop46" /><stop
         style="stop-color:#ff4001;stop-opacity:0;"
         offset="1"
         id="stop47" /></linearGradient><inkscape:path-effect
       effect="offset"
       id="path-effect36"
       is_visible="true"
       lpeversion="1.3"
       linejoin_type="miter"
       unit="mm"
       offset="2"
       miter_limit="4"
       attempt_force_join="false"
       update_on_knot_move="true" /><linearGradient
       inkscape:collect="always"
       xlink:href="#linearGradient46"
       id="linearGradient47"
       x1="129.36508"
       y1="124.28023"
       x2="65.066223"
       y2="66.768005"
       gradientUnits="userSpaceOnUse" /></defs><g
     inkscape:label="Capa 1"
     inkscape:groupmode="layer"
     id="layer1"
     transform="translate(-46.951172,-45.910157)"><path
       style="display:inline;fill:#ff4001;fill-opacity:1;stroke:#000000;stroke-width:0.499999;stroke-dasharray:none"
       id="rect36"
       width="106.17642"
       height="106.95712"
       x="49.202053"
       y="48.161106"
       ry="8.8480349"
       rx="0"
       inkscape:path-effect="#path-effect36"
       sodipodi:type="rect"
       d="m 58.050781,46.160156 c -5.998987,0 -10.849609,4.850622 -10.849609,10.84961 v 89.259764 c 0,5.99899 4.850622,10.84961 10.849609,10.84961 h 88.480469 c 5.99899,0 10.84766,-4.85115 10.84766,-10.84961 V 57.009766 c 0,-5.998455 -4.84867,-10.84961 -10.84766,-10.84961 z" /><rect
       style="display:inline;fill:#ffff00;fill-opacity:1;stroke:#000000;stroke-width:0.499999;stroke-dasharray:none"
       id="rect43"
       width="106.17642"
       height="106.95712"
       x="49.202053"
       y="48.161106"
       ry="8.8480349"
       rx="0" /><rect
       style="display:inline;fill:url(#linearGradient47);fill-opacity:1;stroke:#ff4444;stroke-width:0.499999;stroke-dasharray:none;stroke-opacity:0.752053"
       id="rect37"
       width="106.17642"
       height="106.95712"
       x="49.202053"
       y="48.161106"
       ry="8.8480349"
       rx="0" /><path
       style="fill:#ffffff;stroke:#832b18;stroke-width:0.6;stroke-dasharray:none;stroke-opacity:0.625616"
       d="m 86.450522,115.82751 c -1.88549,-2.23996 -3.53419,-5.44891 -4.236466,-8.24563 -0.718333,-2.86068 -0.717423,-7.24778 0.0021,-10.10181 2.107501,-8.35957 9.460501,-14.731915 17.735351,-15.370025 l 2.109953,-0.162707 v 4.537132 c 0,2.49542 0.0901,4.53713 0.20024,4.53713 0.11013,0 3.44388,-3.24525 7.40833,-7.211665 l 7.20809,-7.211668 -7.40833,-7.404789 -7.40833,-7.404789 v 4.504891 4.504892 l -2.976573,0.323859 c -6.69763,0.728724 -12.05864,2.938156 -16.960312,6.989852 -5.698601,4.710437 -9.339457,10.799887 -10.951831,18.317307 -0.550601,2.56708 -0.603006,8.92322 -0.09493,11.51376 1.14461,5.83603 3.925626,11.41256 7.707741,15.45565 l 1.672123,1.7875 3.768698,-3.76198 3.76871,-3.76198 z"
       id="path33" /><path
       style="fill:#ffffff;stroke:#832b18;stroke-width:0.6;stroke-dasharray:none;stroke-opacity:0.625616"
       d="m 118.1839,88.366119 c 1.88549,2.23996 3.53419,5.44891 4.23647,8.24563 0.71833,2.86068 0.71742,7.247801 -0.002,10.101841 -2.1075,8.35962 -9.46053,14.73199 -17.73543,15.3701 l -2.10996,0.16271 v -4.53714 c 0,-2.49544 -0.0901,-4.53716 -0.20024,-4.53716 -0.11013,0 -3.443888,3.24527 -7.408338,7.2117 l -7.20809,7.21167 7.40833,7.40479 7.408338,7.40478 v -4.50489 -4.50489 l 2.97659,-0.32386 c 6.69767,-0.72872 12.05871,-2.93815 16.96038,-6.98985 5.6986,-4.71044 9.33946,-10.79991 10.95183,-18.31737 0.5506,-2.56709 0.60301,-8.923261 0.0949,-11.513801 -1.14461,-5.83603 -3.92563,-11.41256 -7.70774,-15.45565 l -1.67212,-1.7875 -3.7687,3.76198 -3.76872,3.76198 z"
       id="path35" /></g></svg>
